<?xml version="1.0" standalone="no"?>
<!DOCTYPE svg PUBLIC "-//W3C//DTD SVG 1.1//EN"
  "http://www.w3.org/Graphics/SVG/1.1/DTD/svg11.dtd">
<svg width="482mm" height="237.06800079345697mm" viewBox="-339 -127.49999999999997 482 237.06800079345697" xmlns="http://www.w3.org/2000/svg" version="1.1">
	<title>svgOutput</title>
	<desc>made with tinkercad</desc>
<path d="M 139.1720428466797 -126.49999999999997 L 139.1720428466797 -114.68800354003903 L 139.1720428466797 -106.4960021972656 L 139.1720428466797 -100.49999999999997 L 131.07200622558594 -100.49999999999997 L 130.90065002441406 -100.49999999999997 L 130.88037109375 -100.49999999999997 L 130.87176513671875 -100.49999999999997 L 130.86949157714844 -105.47634124755857 L 130.84934997558594 -114.68800354003903 L 130.832275390625 -122.49999999999997 L 130.86325073242188 -125.30104064941403 L 130.86325073242188 -126.49999999999997 L 131.07200622558594 -126.49999999999997 L 131.45904541015625 -126.49999999999997 L 139.1720428466797 -126.49999999999997 M 142 -84.9980010986328 L 142 -81.9199981689453 L 142 -73.72799682617186 L 142 -65.53600311279295 L 142 -61.76644134521483 L 142 -57.34400177001952 L 142 -49.15200042724608 L 142 -47.172222137451165 L 142 -45.45941162109374 L 142 -43.87866210937499 L 142 -40.95999908447265 L 142 -32.76800155639648 L 142 -24.57600021362304 L 142 -16.38400077819824 L 142 -15.656000137329098 L 140.0030059814453 -15.656000137329098 L 140.0030059814453 -16.38400077819824 L 140.0030059814453 -24.57600021362304 L 140.0030059814453 -32.76800155639648 L 140.0030059814453 -40.95999908447265 L 140.0030059814453 -43.87866210937499 L 140.0030059814453 -45.45941162109374 L 140.0030059814453 -47.172222137451165 L 140.0030059814453 -49.15200042724608 L 140.0030059814453 -57.34400177001952 L 140.0030059814453 -61.76644134521483 L 140.0030059814453 -65.53600311279295 L 140.0030059814453 -73.72799682617186 L 140.0030059814453 -81.9199981689453 L 140.0030059814453 -83.00299835205077 L 139.26400756835938 -83.00299835205077 L 131.07200622558594 -83.00299835205077 L 122.87999725341797 -83.00299835205077 L 117.30999755859375 -83.00299835205077 L 117.20307159423828 -83.00299835205077 L 117.20307159423828 -84.9980010986328 L 117.30999755859375 -84.9980010986328 L 122.87999725341797 -84.9980010986328 L 131.07200622558594 -84.9980010986328 L 139.26400756835938 -84.9980010986328 L 140.0030059814453 -84.9980010986328 L 142 -84.9980010986328 M 125.68753051757812 -126.49999999999997 L 125.68753051757812 -122.49999999999997 L 122.87999725341797 -122.49999999999997 L 115.98086547851562 -122.49999999999997 L 115.98086547851562 -122.87999725341794 L 115.98086547851562 -126.49999999999997 L 122.87999725341797 -126.49999999999997 L 125.68753051757812 -126.49999999999997 M 113.93050384521484 -126.49999999999997 L 113.93050384521484 -125.71901702880857 L 113.91731262207031 -122.87999725341794 L 113.9155502319336 -122.49999999999997 L 110.59200286865234 -122.49999999999997 L 108.17950439453125 -122.49999999999997 L 106.49600219726562 -122.49999999999997 L 106.31491088867188 -122.49999999999997 L 103.06949615478516 -122.49999999999997 L 103.06949615478516 -122.87999725341794 L 103.06949615478516 -123.28098297119138 L 103.0844497680664 -126.49999999999997 L 106.49600219726562 -126.49999999999997 L 113.93050384521484 -126.49999999999997 M 101.01913452148438 -126.49999999999997 L 101.01913452148438 -122.87999725341794 L 101.01913452148438 -122.49999999999997 L 98.30400085449219 -122.49999999999997 L 91.31246948242188 -122.49999999999997 L 91.31246948242188 -126.49999999999997 L 98.30400085449219 -126.49999999999997 L 101.01913452148438 -126.49999999999997 M 100.79692840576172 -83.00299835205077 L 100.69000244140625 -83.00299835205077 L 99.89373779296875 -83.00299835205077 L 98.30400085449219 -83.00299835205077 L 90.11199951171875 -83.00299835205077 L 81.91999816894531 -83.00299835205077 L 77.8239974975586 -83.00299835205077 L 73.72799682617188 -83.00299835205077 L 65.53600311279297 -83.00299835205077 L 57.34400177001953 -83.00299835205077 L 49.152000427246094 -83.00299835205077 L 40.959999084472656 -83.00299835205077 L 32.768001556396484 -83.00299835205077 L 24.576000213623047 -83.00299835205077 L 16.384000778198242 -83.00299835205077 L 12.288000106811523 -83.00299835205077 L 8.192000389099121 -83.00299835205077 L 0 -83.00299835205077 L -5.65575647354126 -83.00299835205077 L -8.192000389099121 -83.00299835205077 L -16.384000778198242 -83.00299835205077 L -24.463825225830078 -83.00299835205077 L -24.576000213623047 -83.00299835205077 L -32.768001556396484 -83.00299835205077 L -40.959999084472656 -83.00299835205077 L -49.152000427246094 -83.00299835205077 L -57.34400177001953 -83.00299835205077 L -61.439998626708984 -83.00299835205077 L -65.53600311279297 -83.00299835205077 L -73.72799682617188 -83.00299835205077 L -81.91999816894531 -83.00299835205077 L -86.01599884033203 -83.00299835205077 L -90.11199951171875 -83.00299835205077 L -94.20800018310547 -83.00299835205077 L -98.30400085449219 -83.00299835205077 L -106.49600219726562 -83.00299835205077 L -109.00299835205078 -83.00299835205077 L -109.00299835205078 -81.9199981689453 L -109.00299835205078 -73.72799682617186 L -109.00299835205078 -65.53600311279295 L -109.00299835205078 -57.34400177001952 L -109.00299835205078 -49.15200042724608 L -109.00299835205078 -47.172222137451165 L -109.00299835205078 -45.45941162109374 L -109.00299835205078 -43.87866210937499 L -109.00299835205078 -40.95999908447265 L -109.00299835205078 -32.76800155639648 L -109.00299835205078 -24.57600021362304 L -109.00299835205078 -17.656000137329098 L -111 -17.656000137329098 L -111 -24.57600021362304 L -111 -28.997999191284173 L -110.99800109863281 -28.997999191284173 L -110.99800109863281 -32.76800155639648 L -110.99800109863281 -40.95999908447265 L -110.99800109863281 -43.87866210937499 L -110.99800109863281 -45.45941162109374 L -110.99800109863281 -47.172222137451165 L -110.99800109863281 -49.15200042724608 L -110.99800109863281 -57.34400177001952 L -110.99800109863281 -65.53600311279295 L -110.99800109863281 -73.72799682617186 L -110.99800109863281 -81.9199981689453 L -110.99800109863281 -84.9980010986328 L -110.59200286865234 -84.9980010986328 L -106.49600219726562 -84.9980010986328 L -98.30400085449219 -84.9980010986328 L -94.20800018310547 -84.9980010986328 L -90.11199951171875 -84.9980010986328 L -86.01599884033203 -84.9980010986328 L -81.91999816894531 -84.9980010986328 L -73.72799682617188 -84.9980010986328 L -65.53600311279297 -84.9980010986328 L -61.439998626708984 -84.9980010986328 L -57.34400177001953 -84.9980010986328 L -49.152000427246094 -84.9980010986328 L -40.959999084472656 -84.9980010986328 L -32.768001556396484 -84.9980010986328 L -24.576000213623047 -84.9980010986328 L -24.463825225830078 -84.9980010986328 L -16.384000778198242 -84.9980010986328 L -8.192000389099121 -84.9980010986328 L -5.65575647354126 -84.9980010986328 L 0 -84.9980010986328 L 8.192000389099121 -84.9980010986328 L 12.288000106811523 -84.9980010986328 L 16.384000778198242 -84.9980010986328 L 24.576000213623047 -84.9980010986328 L 32.768001556396484 -84.9980010986328 L 40.959999084472656 -84.9980010986328 L 49.152000427246094 -84.9980010986328 L 57.34400177001953 -84.9980010986328 L 65.53600311279297 -84.9980010986328 L 73.72799682617188 -84.9980010986328 L 77.8239974975586 -84.9980010986328 L 81.91999816894531 -84.9980010986328 L 90.11199951171875 -84.9980010986328 L 98.30400085449219 -84.9980010986328 L 99.89373779296875 -84.9980010986328 L 100.69000244140625 -84.9980010986328 L 100.79692840576172 -84.9980010986328 L 100.79692840576172 -83.00299835205077 M 112.62104034423828 -69.53199768066405 L 112.62104034423828 -65.53600311279295 L 112.62104034423828 -49.15200042724608 L 112.62104034423828 -47.53200149536132 L 107.10340118408203 -47.53200149536132 L 106.49600219726562 -47.53200149536132 L 104.47895812988281 -47.53200149536132 L 104.47895812988281 -49.15200042724608 L 104.47895812988281 -65.53600311279295 L 104.47895812988281 -69.53199768066405 L 106.49600219726562 -69.53199768066405 L 110.59200286865234 -69.53199768066405 L 112.62104034423828 -69.53199768066405 M 86.13674926757812 -126.49999999999997 L 86.13674926757812 -125.30104064941403 L 86.16771697998047 -122.49999999999997 L 86.15064239501953 -114.68800354003903 L 86.13050842285156 -105.47634124755857 L 86.12822723388672 -100.49999999999997 L 86.11962890625 -100.49999999999997 L 86.09934997558594 -100.49999999999997 L 86.05233764648438 -100.49999999999997 L 85.12261199951172 -100.49999999999997 L 85.11100769042969 -100.49999999999997 L 81.91999816894531 -100.49999999999997 L 77.82796478271484 -100.49999999999997 L 77.82796478271484 -114.68800354003903 L 77.82796478271484 -126.49999999999997 L 81.91999816894531 -126.49999999999997 L 86.04295349121094 -126.49999999999997 L 86.12349700927734 -126.49999999999997 L 86.13674926757812 -126.49999999999997 M 142 4.3489999771118155 L 142 16.38400077819824 L 142 20.869924545288082 L 142 24.57600021362304 L 142 24.96851730346679 L 142 26.903926849365227 L 142 28.703166961669915 L 142 32.76800155639648 L 142 36.86399841308593 L 142 40.95999908447265 L 142 42.85499954223632 L 142 44.678081512451165 L 142 49.15200042724608 L 142 52.95094299316405 L 142 53.2480010986328 L 142 54.32199859619139 L 142 55.309196472167955 L 140.0030059814453 55.309196472167955 L 140.0030059814453 54.32199859619139 L 140.0030059814453 53.2480010986328 L 140.0030059814453 52.95094299316405 L 140.0030059814453 49.15200042724608 L 140.0030059814453 44.678081512451165 L 140.0030059814453 42.85499954223632 L 140.0030059814453 40.95999908447265 L 140.0030059814453 36.86399841308593 L 140.0030059814453 32.76800155639648 L 140.0030059814453 28.703166961669915 L 140.0030059814453 26.903926849365227 L 140.0030059814453 24.96851730346679 L 140.0030059814453 24.57600021362304 L 140.0030059814453 20.869924545288082 L 140.0030059814453 16.38400077819824 L 140.0030059814453 4.3489999771118155 L 142 4.3489999771118155 M 140.0030059814453 60.69080352783202 L 142 60.69080352783202 L 142 61.17324066162108 L 142 61.17333602905272 L 142 65.53600311279295 L 142 67.58399963378905 L 142 68.9980010986328 L 139.26400756835938 68.9980010986328 L 131.07200622558594 68.9980010986328 L 122.87999725341797 68.9980010986328 L 117.30999755859375 68.9980010986328 L 117.20307159423828 68.9980010986328 L 117.20307159423828 67.00299835205077 L 117.30999755859375 67.00299835205077 L 122.87999725341797 67.00299835205077 L 131.07200622558594 67.00299835205077 L 139.26400756835938 67.00299835205077 L 140.0030059814453 67.00299835205077 L 140.0030059814453 65.53600311279295 L 140.0030059814453 61.17326354980467 L 140.0030059814453 61.17324066162108 L 140.0030059814453 60.69080352783202 M 113.62104034423828 28.667999267578118 L 113.62104034423828 32.76800155639648 L 113.62104034423828 49.15200042724608 L 113.62104034423828 50.66799926757811 L 111.35154724121094 50.66799926757811 L 110.59200286865234 50.66799926757811 L 106.49600219726562 50.66799926757811 L 105.47895812988281 50.66799926757811 L 105.47895812988281 49.15200042724608 L 105.47895812988281 32.76800155639648 L 105.47895812988281 28.667999267578118 L 106.49600219726562 28.667999267578118 L 113.62104034423828 28.667999267578118 M 108.54964447021484 62.06800079345702 L 108.54964447021484 65.53600311279295 L 108.54964447021484 69.63200378417967 L 108.54964447021484 73.72799682617186 L 108.54964447021484 77.82399749755858 L 108.54964447021484 81.9199981689453 L 108.54964447021484 86.01599884033202 L 108.54964447021484 90.11199951171874 L 108.54964447021484 94.20800018310545 L 108.54964447021484 98.30400085449216 L 108.54964447021484 102.40000152587888 L 108.54964447021484 104.568000793457 L 109.08158111572266 104.568000793457 L 110.59200286865234 104.568000793457 L 114.12665557861328 104.568000793457 L 114.13561248779297 106.4960021972656 L 114.13640594482422 106.66647338867185 L 114.13640594482422 108.568000793457 L 106.49600219726562 108.568000793457 L 102.87334442138672 108.568000793457 L 102.86371612548828 106.4960021972656 L 102.86359405517578 106.46952819824216 L 102.86359405517578 104.568000793457 L 106.10398864746094 104.568000793457 L 106.49600219726562 104.568000793457 L 108.45035552978516 104.568000793457 L 108.45035552978516 102.40000152587888 L 108.45035552978516 98.30400085449216 L 108.45035552978516 94.20800018310545 L 108.45035552978516 90.11199951171874 L 108.45035552978516 86.01599884033202 L 108.45035552978516 81.9199981689453 L 108.45035552978516 77.82399749755858 L 108.45035552978516 73.72799682617186 L 108.45035552978516 69.63200378417967 L 108.45035552978516 65.53600311279295 L 108.45035552978516 62.06800079345702 L 108.54964447021484 62.06800079345702 M 100.79692840576172 68.9980010986328 L 99.89373779296875 68.9980010986328 L 98.30400085449219 68.9980010986328 L 90.11199951171875 68.9980010986328 L 81.91999816894531 68.9980010986328 L 73.72799682617188 68.9980010986328 L 65.53600311279297 68.9980010986328 L 62.655757904052734 68.9980010986328 L 57.34400177001953 68.9980010986328 L 49.152000427246094 68.9980010986328 L 45.3619384765625 68.9980010986328 L 42.344242095947266 68.9980010986328 L 40.959999084472656 68.9980010986328 L 32.768001556396484 68.9980010986328 L 24.576000213623047 68.9980010986328 L 16.384000778198242 68.9980010986328 L 12.288000106811523 68.9980010986328 L 8.192000389099121 68.9980010986328 L 0 68.9980010986328 L -5.65575647354126 68.9980010986328 L -8.192000389099121 68.9980010986328 L -16.384000778198242 68.9980010986328 L -24.463825225830078 68.9980010986328 L -24.576000213623047 68.9980010986328 L -32.768001556396484 68.9980010986328 L -40.959999084472656 68.9980010986328 L -49.152000427246094 68.9980010986328 L -53.24800109863281 68.9980010986328 L -57.34400177001953 68.9980010986328 L -61.655757904052734 68.9980010986328 L -62.3619384765625 68.9980010986328 L -65.53600311279297 68.9980010986328 L -73.72799682617188 68.9980010986328 L -81.91999816894531 68.9980010986328 L -90.11199951171875 68.9980010986328 L -94.20800018310547 68.9980010986328 L -98.30400085449219 68.9980010986328 L -106.49600219726562 68.9980010986328 L -109.00299835205078 68.9980010986328 L -110.99800109863281 68.9980010986328 L -110.99800109863281 65.53600311279295 L -110.99800109863281 60.69080352783202 L -109.00299835205078 60.69080352783202 L -109.00299835205078 65.53600311279295 L -109.00299835205078 67.00299835205077 L -106.49600219726562 67.00299835205077 L -98.30400085449219 67.00299835205077 L -94.20800018310547 67.00299835205077 L -90.11199951171875 67.00299835205077 L -81.91999816894531 67.00299835205077 L -73.72799682617188 67.00299835205077 L -65.53600311279297 67.00299835205077 L -62.3619384765625 67.00299835205077 L -61.655757904052734 67.00299835205077 L -57.34400177001953 67.00299835205077 L -53.24800109863281 67.00299835205077 L -49.152000427246094 67.00299835205077 L -40.959999084472656 67.00299835205077 L -32.768001556396484 67.00299835205077 L -24.576000213623047 67.00299835205077 L -24.463825225830078 67.00299835205077 L -16.384000778198242 67.00299835205077 L -8.192000389099121 67.00299835205077 L -5.65575647354126 67.00299835205077 L 0 67.00299835205077 L 8.192000389099121 67.00299835205077 L 12.288000106811523 67.00299835205077 L 16.384000778198242 67.00299835205077 L 24.576000213623047 67.00299835205077 L 32.768001556396484 67.00299835205077 L 40.959999084472656 67.00299835205077 L 42.344242095947266 67.00299835205077 L 45.3619384765625 67.00299835205077 L 49.152000427246094 67.00299835205077 L 57.34400177001953 67.00299835205077 L 62.655757904052734 67.00299835205077 L 65.53600311279297 67.00299835205077 L 73.72799682617188 67.00299835205077 L 81.91999816894531 67.00299835205077 L 90.11199951171875 67.00299835205077 L 98.30400085449219 67.00299835205077 L 99.89373779296875 67.00299835205077 L 100.79692840576172 67.00299835205077 L 100.79692840576172 68.9980010986328 M 130.92176818847656 82.56800079345702 L 131.07200622558594 82.56800079345702 L 139.20606994628906 82.56800079345702 L 139.20606994628906 90.11199951171874 L 139.20606994628906 98.30400085449216 L 139.20606994628906 108.568000793457 L 131.07200622558594 108.568000793457 L 130.91305541992188 108.568000793457 L 130.91305541992188 107.02439880371091 L 130.88589477539062 104.568000793457 L 130.8995819091797 98.30400085449216 L 130.91851806640625 89.63897705078124 L 130.92176818847656 82.56800079345702 M 125.1797103881836 104.568000793457 L 125.1797103881836 108.568000793457 L 122.87999725341797 108.568000793457 L 115.67599487304688 108.568000793457 L 115.47303009033203 108.568000793457 L 115.47303009033203 106.4960021972656 L 115.47303009033203 104.568000793457 L 122.87999725341797 104.568000793457 L 125.1797103881836 104.568000793457 M 91.8202896118164 108.568000793457 L 91.8202896118164 104.568000793457 L 98.30400085449219 104.568000793457 L 101.52696990966797 104.568000793457 L 101.52696990966797 106.4960021972656 L 101.52696990966797 108.568000793457 L 101.32400512695312 108.568000793457 L 100.764404296875 108.568000793457 L 98.30400085449219 108.568000793457 L 91.8202896118164 108.568000793457 M 86.11410522460938 104.568000793457 L 86.08695220947266 107.02439880371091 L 86.08695220947266 108.568000793457 L 86.00468444824219 108.568000793457 L 86.0045166015625 108.568000793457 L 85.8626708984375 108.568000793457 L 85.86052703857422 108.568000793457 L 85.58131408691406 108.568000793457 L 85.53302001953125 108.568000793457 L 85.52688598632812 108.568000793457 L 85.0999984741211 108.568000793457 L 85.09143829345703 108.568000793457 L 84.55422973632812 108.568000793457 L 81.91999816894531 108.568000793457 L 77.79393005371094 108.568000793457 L 77.79393005371094 98.30400085449216 L 77.79393005371094 82.56800079345702 L 81.91999816894531 82.56800079345702 L 84.55964660644531 82.56800079345702 L 85.10922241210938 82.56800079345702 L 85.1205825805664 82.56800079345702 L 85.52143096923828 82.56800079345702 L 85.58885955810547 82.56800079345702 L 85.85082244873047 82.56800079345702 L 85.85198211669922 82.56800079345702 L 86.01390075683594 82.56800079345702 L 86.01432037353516 82.56800079345702 L 86.07823181152344 82.56800079345702 L 86.08147430419922 89.63897705078124 L 86.10041809082031 98.30400085449216 L 86.11410522460938 104.568000793457 M -111 2.348999977111816 L -109.00299835205078 2.348999977111816 L -109.00299835205078 8.19200038909912 L -109.00299835205078 16.38400077819824 L -109.00299835205078 20.869924545288082 L -109.00299835205078 24.57600021362304 L -109.00299835205078 24.96851730346679 L -109.00299835205078 26.903926849365227 L -109.00299835205078 28.703166961669915 L -109.00299835205078 32.76800155639648 L -109.00299835205078 36.86399841308593 L -109.00299835205078 40.95999908447265 L -109.00299835205078 42.85499954223632 L -109.00299835205078 44.678081512451165 L -109.00299835205078 49.15200042724608 L -109.00299835205078 52.95094299316405 L -109.00299835205078 54.32199859619139 L -109.00299835205078 55.309196472167955 L -110.99800109863281 55.309196472167955 L -110.99800109863281 54.32199859619139 L -110.99800109863281 52.95094299316405 L -110.99800109863281 49.15200042724608 L -110.99800109863281 44.678081512451165 L -110.99800109863281 42.85499954223632 L -110.99800109863281 40.95999908447265 L -110.99800109863281 36.86399841308593 L -110.99800109863281 32.76800155639648 L -110.99800109863281 28.703166961669915 L -110.99800109863281 26.903926849365227 L -110.99800109863281 24.96851730346679 L -110.99800109863281 24.57600021362304 L -110.99800109863281 20.869924545288082 L -110.99800109863281 16.38400077819824 L -110.99800109863281 11.998000144958494 L -111 11.998000144958494 L -111 8.19200038909912 L -111 2.348999977111816 M -105 18.999999999999996 L -98.30400085449219 18.999999999999996 L -65.53600311279297 18.999999999999996 L 0 18.999999999999996 L 32.768001556396484 18.999999999999996 L 35 18.999999999999996 L 35 20.479999542236325 L 35 24.57600021362304 L 35 32.76800155639648 L 35 63.999999999999986 L 32.768001556396484 63.999999999999986 L 0 63.999999999999986 L -65.53600311279297 63.999999999999986 L -98.30400085449219 63.999999999999986 L -105 63.999999999999986 L -105 57.34400177001952 L -105 49.15200042724608 L -105 40.95999908447265 L -105 32.76800155639648 L -105 24.57600021362304 L -105 18.999999999999996 M -196.340087890625 -91.04813385009764 L -196.60800170898438 -91.34703826904295 L -199.650390625 -94.74144744873045 L -200.98899841308594 -96.23500061035153 L -200.9914093017578 -96.23654174804685 L -202.00540161132812 -96.88636779785153 L -202.48480224609375 -97.19380950927732 L -203.9886016845703 -98.15791320800778 L -204.1836700439453 -98.28311920166013 L -204.2162322998047 -98.30400085449216 L -207.63946533203125 -100.49865722656247 L -207.6395263671875 -100.49869537353513 L -207.63999938964844 -100.49900054931638 L -208.9867401123047 -100.78059387207028 L -209.01315307617188 -100.78610992431638 L -209.2991485595703 -100.84596252441403 L -211.0186309814453 -101.20575714111325 L -212.99200439453125 -101.61855316162107 L -214.49974060058594 -101.93394470214841 L -214.5 -101.93399810791013 L -215.76922607421875 -101.66842651367185 L -217.9805145263672 -101.20593261718747 L -220.32891845703125 -100.71477508544919 L -220.33839416503906 -100.712776184082 L -220.36582946777344 -100.70700073242185 L -221.35186767578125 -100.50070190429685 L -221.36000061035156 -100.49900054931638 L -222.10316467285156 -100.02257537841794 L -223.28359985351562 -99.26544189453122 L -223.51083374023438 -99.1201248168945 L -223.51675415039062 -99.116340637207 L -223.5230712890625 -99.11229705810544 L -223.5372772216797 -99.10321807861325 L -223.68829345703125 -99.0063781738281 L -223.85435485839844 -98.89990234374997 L -223.9183349609375 -98.85887145996091 L -224.7838134765625 -98.30400085449216 L -224.8689422607422 -98.2494201660156 L -225.65269470214844 -97.74694824218747 L -225.8473663330078 -97.6219787597656 L -226.05213928222656 -97.49051666259763 L -226.6082000732422 -97.13435363769528 L -227.08999633789062 -96.82557678222653 L -228.01100158691406 -96.23500061035153 L -228.01522827148438 -96.23028564453122 L -228.9199981689453 -95.2210006713867 L -228.10707092285156 -96.17133331298825 L -226.28271484375 -98.30400085449216 L -225.06846618652344 -99.72347259521482 L -224.00900268554688 -100.96199798583982 L -220.64564514160156 -103.21956634521482 L -217.35699462890625 -105.42700195312497 L -212.99200439453125 -106.38504791259763 L -210.5 -106.93199920654294 L -203.64300537109375 -105.42700195312497 L -196.99099731445312 -100.96199798583982 L -196.60800170898438 -100.51425933837888 L -194.71734619140625 -98.30400085449216 L -190.75 -93.66600036621092 L -185.10899353027344 -83.76599884033202 L -184.37254333496094 -81.9199981689453 L -180.2429962158203 -71.56900024414061 L -180.2239990234375 -71.50099945068358 L -178.5573272705078 -65.53600311279295 L -176.29299926757812 -57.431999206542955 L -174.7520751953125 -49.15200042724608 L -173.3820037841797 -41.79000091552734 L -172.4176788330078 -32.76800155639648 L -171.60357666015625 -25.151430130004876 L -171.60000610351562 -25.11800003051757 L -171.56893920898438 -24.22743606567382 L -171.56301879882812 -24.054599761962884 L -171.54966735839844 -23.674959182739254 L -171.5478057861328 -23.62197875976562 L -171.5242919921875 -22.943826675415036 L -171.4945831298828 -22.08746528625488 L -171.48060607910156 -21.694694519042965 L -171.46188354492188 -21.168123245239254 L -171.43284606933594 -20.326698303222653 L -171.40509033203125 -19.531589508056637 L -171.40267944335938 -19.46246528625488 L -171.3646697998047 -18.368955612182614 L -171.3291015625 -17.346055984497067 L -171.30010986328125 -16.519062042236325 L -171.29541015625 -16.38400077819824 L -171.2803955078125 -15.951854705810543 L -171.0872802734375 -10.428277015686033 L -171.00086975097656 -7.95668315887451 L -171.00083923339844 -7.955863952636717 L -171 -7.932000160217283 L -171.2764129638672 -0.020478742197155838 L -171.27711486816406 1.1102230246251565e-16 L -171.2958984375 0.5407360196113586 L -171.32467651367188 1.3617366552352905 L -171.3600616455078 2.3793990612030025 L -171.39793395996094 3.4693045616149893 L -171.4281005859375 4.333537101745605 L -171.44688415527344 4.877967834472655 L -171.4570770263672 5.173675060272216 L -171.48983764648438 6.094305038452147 L -171.51968383789062 6.9542689323425275 L -171.5433807373047 7.637659549713133 L -171.54483032226562 7.678719043731688 L -171.55880737304688 8.076273918151854 L -171.56495666503906 8.255103111267088 L -171.60000610351562 9.253999710083006 L -172.36209106445312 16.38400077819824 L -173.3820037841797 25.926000595092766 L -174.65530395507812 32.76800155639648 L -176.29299926757812 41.568000793457024 L -178.4120330810547 49.15200042724608 L -180.2429962158203 55.70500183105467 L -184.1650848388672 65.53600311279295 L -185.10899353027344 67.90200042724608 L -190.75 77.80200195312499 L -196.60800170898438 84.65025329589842 L -196.99099731445312 85.09799957275389 L -203.64300537109375 89.56300354003905 L -210.5 91.06800079345702 L -212.99200439453125 90.5210494995117 L -217.35699462890625 89.56300354003905 L -224.00900268554688 85.09799957275389 L -224.02603149414062 85.07809448242186 L -226.208984375 82.52600860595702 L -226.20899963378906 82.52600097656249 L -225.10430908203125 83.23414611816405 L -223.9423370361328 83.9793014526367 L -223.49658203125 84.26510620117186 L -222.61236572265625 84.83187866210936 L -221.87237548828125 85.30643463134764 L -221.4154510498047 85.59944915771483 L -221.36000061035156 85.63500213623045 L -221.3599853515625 85.63500213623045 L -221.35916137695312 85.63517761230467 L -221.0275115966797 85.70445251464842 L -219.989990234375 85.92161560058592 L -219.3361358642578 86.05850219726561 L -219.24618530273438 86.07733917236327 L -218.06764221191406 86.32418823242186 L -217.76919555664062 86.3865509033203 L -217.66998291015625 86.40727233886717 L -215.82276916503906 86.79394531249999 L -214.91197204589844 86.98450469970702 L -214.54843139648438 87.06082916259764 L -214.5 87.0709991455078 L -214.4999237060547 87.07098388671874 L -214.49276733398438 87.06948852539061 L -212.99200439453125 86.75533294677733 L -211.0702362060547 86.35305023193358 L -210.53514099121094 86.24094390869139 L -209.03358459472656 85.92687225341795 L -208.18296813964844 85.74856567382811 L -207.6410369873047 85.63521575927733 L -207.63999938964844 85.63500213623045 L -204.23123168945312 83.44961547851561 L -202.85202026367188 82.56557464599608 L -202.56118774414062 82.3789596557617 L -202.4644775390625 82.3170700073242 L -201.84521484375 81.9199981689453 L -200.98899841308594 81.37100219726561 L -199.98577880859375 80.25198364257811 L -196.70703125 76.59440612792967 L -196.60800170898438 76.48387908935545 L -196.2931671142578 76.1325225830078 L -194.74899291992188 74.41000366210936 L -194.74761962890625 74.40768432617186 L -194.2489013671875 73.57209014892577 L -193.65963745117188 72.58531951904295 L -190.66738891601562 67.57312011718749 L -189.45126342773438 65.53600311279295 L -189.10800170898438 64.96099853515624 L -188.97738647460938 64.64903259277342 L -188.32669067382812 63.09154891967772 L -185.7315673828125 56.88330841064452 L -184.40744018554688 53.71631622314452 L -184.23899841308594 53.31299972534178 L -184.23358154296875 53.29446411132811 L -183.73228454589844 51.58113861083983 L -183.02139282226562 49.15200042724608 L -181.6207733154297 44.365955352783196 L -180.65956115722656 41.08149337768554 L -180.2904052734375 39.82040786743163 L -180.2899932861328 39.81900024414062 L -180.0049591064453 38.35615921020507 L -179.35110473632812 35.00230407714843 L -178.91558837890625 32.76800155639648 L -177.79367065429688 27.012264251708977 L -177.38002014160156 24.89012908935546 L -177.3800048828125 24.88999938964843 L -177.25714111328125 23.79303169250488 L -176.87937927246094 20.420627593994137 L -176.4273223876953 16.38400077819824 L -175.92416381835938 11.891234397888182 L -175.59800720214844 8.977999687194822 L -175.5734405517578 8.301563262939451 L -175.4510955810547 4.964815616607665 L -175.26956176757812 1.1102230246251565e-16 L -175.129150390625 -3.840524435043334 L -174.9980010986328 -7.432000160217283 L -175.0009765625 -7.514697551727293 L -175.00633239746094 -7.663604259490965 L -175.12535095214844 -10.916405677795408 L -175.3252716064453 -16.38400077819824 L -175.44749450683594 -19.726844787597653 L -175.5901336669922 -23.62163162231445 L -175.59800720214844 -23.841999053955075 L -175.9225616455078 -26.74029922485351 L -176.59759521484375 -32.76800155639648 L -176.8795166015625 -35.28524780273437 L -177.30459594726562 -39.07906341552734 L -177.37994384765625 -39.7535171508789 L -177.3800048828125 -39.75400161743163 L -177.83157348632812 -42.07067489624023 L -179.21188354492188 -49.15200042724608 L -179.393798828125 -50.08531188964842 L -180.07627868652344 -53.58666610717772 L -180.2892303466797 -54.67905807495116 L -180.2899932861328 -54.68299865722655 L -180.8144989013672 -56.47536468505858 L -182.9321746826172 -63.711627960205064 L -183.46612548828125 -65.53600311279295 L -183.81854248046875 -66.74011993408202 L -184.23681640625 -68.16954040527342 L -184.23899841308594 -68.17700195312499 L -184.81085205078125 -69.54524993896483 L -185.80908203125 -71.93275451660155 L -188.41766357421875 -78.17321014404295 L -189.10800170898438 -79.82499694824217 L -189.74342346191406 -80.88901519775389 L -190.35894775390625 -81.9199981689453 L -190.73411560058594 -82.54840850830077 L -193.74298095703125 -87.58791351318358 L -194.74740600585938 -89.27034759521483 L -194.74899291992188 -89.2730026245117 L -195.51527404785156 -90.12807464599608 L -196.340087890625 -91.04813385009764 M -288 11.067999839782713 L -338 11.067999839782713 L -338 -38.93199920654296 L -288 -38.93199920654296 L -288 11.067999839782713 z" fill="none" stroke="rgb(255,0,0)" stroke-width="0.001mm" />
</svg>