<?xml version="1.0" standalone="no"?>
<!DOCTYPE svg PUBLIC "-//W3C//DTD SVG 1.1//EN"
  "http://www.w3.org/Graphics/SVG/1.1/DTD/svg11.dtd">
<svg width="284.20361328125mm" height="237.06800079345697mm" viewBox="-141.2056121826172 -127.49999999999997 284.20361328125 237.06800079345697" xmlns="http://www.w3.org/2000/svg" version="1.1">
	<title>svgOutput</title>
	<desc>made with tinkercad</desc>
<path d="M 139.1720428466797 -126.49999999999997 L 139.1720428466797 -122.49999999999997 L 139.1720428466797 -114.68800354003903 L 139.1720428466797 -106.4960021972656 L 139.1720428466797 -100.49999999999997 L 131.07200622558594 -100.49999999999997 L 130.87176513671875 -100.49999999999997 L 130.86949157714844 -105.47634124755857 L 130.84934997558594 -114.68800354003903 L 130.832275390625 -122.49999999999997 L 130.86325073242188 -125.30104064941403 L 130.86325073242188 -126.49999999999997 L 131.07200622558594 -126.49999999999997 L 131.45904541015625 -126.49999999999997 L 139.1720428466797 -126.49999999999997 M 141.9980010986328 -69.89099884033202 L 141.9980010986328 -68.34100341796874 L 141.9980010986328 -65.53600311279295 L 141.9980010986328 -57.34400177001952 L 141.9980010986328 -54.08787536621092 L 141.9980010986328 -51.82182693481444 L 141.9980010986328 -49.15200042724608 L 141.9980010986328 -45.05599975585937 L 141.9980010986328 -40.95999908447265 L 141.9980010986328 -40.47151565551757 L 141.9980010986328 -39.13926696777343 L 141.9980010986328 -37.91049194335937 L 141.9980010986328 -32.76800155639648 L 141.9980010986328 -24.57600021362304 L 141.9980010986328 -16.38400077819824 L 141.9980010986328 -15.960000038146969 L 140.0030059814453 -15.960000038146969 L 140.0030059814453 -16.38400077819824 L 140.0030059814453 -24.57600021362304 L 140.0030059814453 -32.76800155639648 L 140.0030059814453 -37.91049194335937 L 140.0030059814453 -39.13926696777343 L 140.0030059814453 -40.47151565551757 L 140.0030059814453 -40.95999908447265 L 140.0030059814453 -45.05599975585937 L 140.0030059814453 -49.15200042724608 L 140.0030059814453 -51.82182693481444 L 140.0030059814453 -54.08787536621092 L 140.0030059814453 -57.34400177001952 L 140.0030059814453 -65.53600311279295 L 140.0030059814453 -68.34100341796874 L 139.26400756835938 -68.34100341796874 L 131.07200622558594 -68.34100341796874 L 117.20307159423828 -68.34100341796874 L 117.20307159423828 -69.89099884033202 L 131.07200622558594 -69.89099884033202 L 139.26400756835938 -69.89099884033202 L 141.9980010986328 -69.89099884033202 M 141.9980010986328 -0.40000000596046426 L 141.9980010986328 1.1102230246251565e-16 L 141.9980010986328 8.19200038909912 L 141.9980010986328 12.449434280395504 L 141.9980010986328 16.38400077819824 L 141.9980010986328 17.142854690551754 L 141.9980010986328 18.54084968566894 L 141.9980010986328 20.479999542236325 L 141.9980010986328 24.57600021362304 L 141.9980010986328 24.65081596374511 L 141.9980010986328 28.013185501098626 L 141.9980010986328 29.548803329467766 L 141.9980010986328 30.96532249450683 L 141.9980010986328 32.76800155639648 L 141.9980010986328 38.86047744750976 L 141.9980010986328 39.235523223876946 L 140.0030059814453 39.235523223876946 L 140.0030059814453 38.86047744750976 L 140.0030059814453 32.76800155639648 L 140.0030059814453 30.96532249450683 L 140.0030059814453 29.548803329467766 L 140.0030059814453 28.013185501098626 L 140.0030059814453 24.65081596374511 L 140.0030059814453 24.57600021362304 L 140.0030059814453 20.479999542236325 L 140.0030059814453 18.54084968566894 L 140.0030059814453 17.142854690551754 L 140.0030059814453 16.38400077819824 L 140.0030059814453 12.449434280395504 L 140.0030059814453 8.19200038909912 L 140.0030059814453 1.1102230246251565e-16 L 140.0030059814453 -0.40000000596046426 L 141.9980010986328 -0.40000000596046426 M 125.68753051757812 -126.49999999999997 L 125.68753051757812 -122.49999999999997 L 122.87999725341797 -122.49999999999997 L 115.98086547851562 -122.49999999999997 L 115.98086547851562 -122.87999725341794 L 115.98086547851562 -126.49999999999997 L 122.87999725341797 -126.49999999999997 L 125.68753051757812 -126.49999999999997 M 113.93050384521484 -126.49999999999997 L 113.93050384521484 -125.71901702880857 L 113.91731262207031 -122.87999725341794 L 113.9155502319336 -122.49999999999997 L 110.68508911132812 -122.49999999999997 L 110.59200286865234 -122.49999999999997 L 106.49600219726562 -122.49999999999997 L 106.31491088867188 -122.49999999999997 L 103.06949615478516 -122.49999999999997 L 103.06949615478516 -122.87999725341794 L 103.06949615478516 -123.28098297119138 L 103.0844497680664 -126.49999999999997 L 106.49600219726562 -126.49999999999997 L 113.93050384521484 -126.49999999999997 M 101.01913452148438 -126.49999999999997 L 101.01913452148438 -122.87999725341794 L 101.01913452148438 -122.49999999999997 L 98.30400085449219 -122.49999999999997 L 91.31246948242188 -122.49999999999997 L 91.31246948242188 -126.49999999999997 L 98.30400085449219 -126.49999999999997 L 101.01913452148438 -126.49999999999997 M 100.79692840576172 -68.34100341796874 L 99.89373779296875 -68.34100341796874 L 98.30400085449219 -68.34100341796874 L 90.11199951171875 -68.34100341796874 L 81.91999816894531 -68.34100341796874 L 79.31881713867188 -68.34100341796874 L 73.72799682617188 -68.34100341796874 L 65.53600311279297 -68.34100341796874 L 60.344242095947266 -68.34100341796874 L 57.34400177001953 -68.34100341796874 L 49.152000427246094 -68.34100341796874 L 42.344242095947266 -68.34100341796874 L 40.959999084472656 -68.34100341796874 L 32.768001556396484 -68.34100341796874 L 31.72614097595215 -68.34100341796874 L 29.61284637451172 -68.34100341796874 L 27.536174774169922 -68.34100341796874 L 24.861745834350586 -68.34100341796874 L 24.576000213623047 -68.34100341796874 L 16.384000778198242 -68.34100341796874 L 14.949201583862305 -68.34100341796874 L 13.112247467041016 -68.34100341796874 L 11.847000122070312 -68.34100341796874 L 8.192000389099121 -68.34100341796874 L 0 -68.34100341796874 L -5.65575647354126 -68.34100341796874 L -8.192000389099121 -68.34100341796874 L -16.384000778198242 -68.34100341796874 L -24.463825225830078 -68.34100341796874 L -24.576000213623047 -68.34100341796874 L -32.768001556396484 -68.34100341796874 L -37.04703140258789 -68.34100341796874 L -38.887752532958984 -68.34100341796874 L -40.959999084472656 -68.34100341796874 L -49.152000427246094 -68.34100341796874 L -57.34400177001953 -68.34100341796874 L -61.655757904052734 -68.34100341796874 L -62.3619384765625 -68.34100341796874 L -65.53600311279297 -68.34100341796874 L -73.72799682617188 -68.34100341796874 L -81.91999816894531 -68.34100341796874 L -86.53617095947266 -68.34100341796874 L -90.11199951171875 -68.34100341796874 L -98.30400085449219 -68.34100341796874 L -106.49600219726562 -68.34100341796874 L -109.00299835205078 -68.34100341796874 L -109.00299835205078 -65.53600311279295 L -109.00299835205078 -57.34400177001952 L -109.00299835205078 -54.08787536621092 L -109.00299835205078 -51.82182693481444 L -109.00299835205078 -49.15200042724608 L -109.00299835205078 -45.05599975585937 L -109.00299835205078 -40.95999908447265 L -109.00299835205078 -40.47151565551757 L -109.00299835205078 -39.13926696777343 L -109.00299835205078 -36.86399841308593 L -109.00299835205078 -32.76800155639648 L -109.00299835205078 -24.57600021362304 L -109.00299835205078 -17.51600074768066 L -110.99800109863281 -17.51600074768066 L -110.99800109863281 -24.57600021362304 L -110.99800109863281 -32.76800155639648 L -110.99800109863281 -36.86399841308593 L -110.99800109863281 -39.13926696777343 L -110.99800109863281 -40.47151565551757 L -110.99800109863281 -40.95999908447265 L -110.99800109863281 -45.05599975585937 L -110.99800109863281 -49.15200042724608 L -110.99800109863281 -51.82182693481444 L -110.99800109863281 -54.08787536621092 L -110.99800109863281 -57.34400177001952 L -110.99800109863281 -65.53600311279295 L -110.99800109863281 -69.63200378417967 L -110.99800109863281 -69.89099884033202 L -106.49600219726562 -69.89099884033202 L -98.30400085449219 -69.89099884033202 L -90.11199951171875 -69.89099884033202 L -86.53617095947266 -69.89099884033202 L -81.91999816894531 -69.89099884033202 L -73.72799682617188 -69.89099884033202 L -65.53600311279297 -69.89099884033202 L -62.3619384765625 -69.89099884033202 L -61.655757904052734 -69.89099884033202 L -57.34400177001953 -69.89099884033202 L -49.152000427246094 -69.89099884033202 L -40.959999084472656 -69.89099884033202 L -38.887752532958984 -69.89099884033202 L -37.04703140258789 -69.89099884033202 L -32.768001556396484 -69.89099884033202 L -24.576000213623047 -69.89099884033202 L -24.463825225830078 -69.89099884033202 L -16.384000778198242 -69.89099884033202 L -8.192000389099121 -69.89099884033202 L -5.65575647354126 -69.89099884033202 L 0 -69.89099884033202 L 8.192000389099121 -69.89099884033202 L 11.847000122070312 -69.89099884033202 L 13.112247467041016 -69.89099884033202 L 14.949201583862305 -69.89099884033202 L 16.384000778198242 -69.89099884033202 L 24.576000213623047 -69.89099884033202 L 24.861745834350586 -69.89099884033202 L 27.536174774169922 -69.89099884033202 L 29.61284637451172 -69.89099884033202 L 31.72614097595215 -69.89099884033202 L 32.768001556396484 -69.89099884033202 L 40.959999084472656 -69.89099884033202 L 42.344242095947266 -69.89099884033202 L 49.152000427246094 -69.89099884033202 L 57.34400177001953 -69.89099884033202 L 60.344242095947266 -69.89099884033202 L 65.53600311279297 -69.89099884033202 L 73.72799682617188 -69.89099884033202 L 79.31881713867188 -69.89099884033202 L 81.91999816894531 -69.89099884033202 L 90.11199951171875 -69.89099884033202 L 98.30400085449219 -69.89099884033202 L 99.89373779296875 -69.89099884033202 L 100.79692840576172 -69.89099884033202 L 100.79692840576172 -68.45200347900389 L 100.79692840576172 -68.34100341796874 M 86.13674926757812 -126.49999999999997 L 86.13674926757812 -125.30104064941403 L 86.16771697998047 -122.49999999999997 L 86.15064239501953 -114.68800354003903 L 86.13050842285156 -105.47634124755857 L 86.12822723388672 -100.49999999999997 L 86.05233764648438 -100.49999999999997 L 85.53567504882812 -100.49999999999997 L 81.91999816894531 -100.49999999999997 L 77.82796478271484 -100.49999999999997 L 77.82796478271484 -114.68800354003903 L 77.82796478271484 -126.49999999999997 L 81.91999816894531 -126.49999999999997 L 86.13674926757812 -126.49999999999997 M 112.62104034423828 -61.55199813842772 L 112.62104034423828 -61.43999862670897 L 112.62104034423828 -57.34400177001952 L 112.62104034423828 -49.15200042724608 L 112.62104034423828 -40.95999908447265 L 112.62104034423828 -39.55199813842773 L 107.10340118408203 -39.55199813842773 L 106.49600219726562 -39.55199813842773 L 104.47895812988281 -39.55199813842773 L 104.47895812988281 -40.95999908447265 L 104.47895812988281 -49.15200042724608 L 104.47895812988281 -57.34400177001952 L 104.47895812988281 -61.55199813842772 L 106.49600219726562 -61.55199813842772 L 110.59200286865234 -61.55199813842772 L 112.62104034423828 -61.55199813842772 M 141.9980010986328 43.42137908935546 L 141.9980010986328 43.79680633544921 L 141.9980010986328 45.05599975585937 L 141.9980010986328 49.15200042724608 L 141.9980010986328 49.881000518798814 L 131.07200622558594 49.881000518798814 L 117.30999755859375 49.881000518798814 L 117.20307159423828 49.881000518798814 L 117.20307159423828 49.15200042724608 L 117.20307159423828 48.33100128173827 L 117.30999755859375 48.33100128173827 L 122.87999725341797 48.33100128173827 L 131.07200622558594 48.33100128173827 L 139.26400756835938 48.33100128173827 L 140.0030059814453 48.33100128173827 L 140.0030059814453 45.05599975585937 L 140.0030059814453 43.79680633544921 L 140.0030059814453 43.42137908935546 L 141.9980010986328 43.42137908935546 M 139.20606994628906 82.56800079345702 L 139.20606994628906 90.11199951171874 L 139.20606994628906 98.30400085449216 L 139.20606994628906 108.568000793457 L 131.07200622558594 108.568000793457 L 130.91305541992188 108.568000793457 L 130.91305541992188 107.02439880371091 L 130.88589477539062 104.568000793457 L 130.8995819091797 98.30400085449216 L 130.91851806640625 89.63897705078124 L 130.92176818847656 82.56800079345702 L 131.07200622558594 82.56800079345702 L 139.20606994628906 82.56800079345702 M 111.35154724121094 43.647998809814446 L 110.59200286865234 43.647998809814446 L 106.49600219726562 43.647998809814446 L 105.47895812988281 43.647998809814446 L 105.47895812988281 40.95999908447265 L 105.47895812988281 32.76800155639648 L 105.47895812988281 24.57600021362304 L 105.47895812988281 21.648000717163082 L 106.49600219726562 21.648000717163082 L 110.9966049194336 21.648000717163082 L 113.62104034423828 21.648000717163082 L 113.62104034423828 24.57600021362304 L 113.62104034423828 32.76800155639648 L 113.62104034423828 40.95999908447265 L 113.62104034423828 43.647998809814446 L 111.35154724121094 43.647998809814446 M 100.79692840576172 48.33100128173827 L 100.79692840576172 49.15200042724608 L 100.79692840576172 49.881000518798814 L 100.69000244140625 49.881000518798814 L 98.30400085449219 49.881000518798814 L 90.11199951171875 49.881000518798814 L 81.91999816894531 49.881000518798814 L 79.31881713867188 49.881000518798814 L 73.72799682617188 49.881000518798814 L 72.13947296142578 49.881000518798814 L 69.85570526123047 49.881000518798814 L 68.41374969482422 49.881000518798814 L 65.82487487792969 49.881000518798814 L 65.53600311279297 49.881000518798814 L 60.344242095947266 49.881000518798814 L 57.34400177001953 49.881000518798814 L 57.17512130737305 49.881000518798814 L 54.58344268798828 49.881000518798814 L 50.41374588012695 49.881000518798814 L 49.152000427246094 49.881000518798814 L 45.3619384765625 49.881000518798814 L 42.344242095947266 49.881000518798814 L 40.959999084472656 49.881000518798814 L 39.17512130737305 49.881000518798814 L 34.27986145019531 49.881000518798814 L 32.768001556396484 49.881000518798814 L 29.61284637451172 49.881000518798814 L 27.536174774169922 49.881000518798814 L 24.861745834350586 49.881000518798814 L 24.576000213623047 49.881000518798814 L 23.38715362548828 49.881000518798814 L 18.725143432617188 49.881000518798814 L 16.384000778198242 49.881000518798814 L 14.949201583862305 49.881000518798814 L 13.112247467041016 49.881000518798814 L 11.152999877929688 49.881000518798814 L 8.275861740112305 49.881000518798814 L 8.192000389099121 49.881000518798814 L 5.947838306427002 49.881000518798814 L 2.4137461185455322 49.881000518798814 L 0 49.881000518798814 L -5.65575647354126 49.881000518798814 L -6.361937522888184 49.881000518798814 L -8.824877738952637 49.881000518798814 L -16.384000778198242 49.881000518798814 L -20.270856857299805 49.881000518798814 L -22.38715362548828 49.881000518798814 L -24.463825225830078 49.881000518798814 L -24.576000213623047 49.881000518798814 L -26.536174774169922 49.881000518798814 L -32.768001556396484 49.881000518798814 L -37.04703140258789 49.881000518798814 L -38.887752532958984 49.881000518798814 L -40.84700012207031 49.881000518798814 L -40.959999084472656 49.881000518798814 L -42.112247467041016 49.881000518798814 L -49.152000427246094 49.881000518798814 L -53.58344268798828 49.881000518798814 L -56.17512130737305 49.881000518798814 L -57.34400177001953 49.881000518798814 L -61.655757904052734 49.881000518798814 L -65.53600311279297 49.881000518798814 L -73.72799682617188 49.881000518798814 L -81.91999816894531 49.881000518798814 L -86.53617095947266 49.881000518798814 L -90.11199951171875 49.881000518798814 L -98.30400085449219 49.881000518798814 L -110.99800109863281 49.881000518798814 L -110.99800109863281 49.15200042724608 L -110.99800109863281 45.05599975585937 L -110.99800109863281 43.79680633544921 L -110.99800109863281 43.42137908935546 L -109.00299835205078 43.42137908935546 L -109.00299835205078 43.79680633544921 L -109.00299835205078 45.05599975585937 L -109.00299835205078 48.33100128173827 L -106.49600219726562 48.33100128173827 L -105 48.33100128173827 L -98.30400085449219 48.33100128173827 L -90.11199951171875 48.33100128173827 L -86.53617095947266 48.33100128173827 L -81.91999816894531 48.33100128173827 L -73.72799682617188 48.33100128173827 L -65.53600311279297 48.33100128173827 L -61.655757904052734 48.33100128173827 L -57.34400177001953 48.33100128173827 L -49.152000427246094 48.33100128173827 L -43.94919967651367 48.33100128173827 L -42.112247467041016 48.33100128173827 L -40.959999084472656 48.33100128173827 L -40.84700012207031 48.33100128173827 L -38.887752532958984 48.33100128173827 L -37.04703140258789 48.33100128173827 L -32.768001556396484 48.33100128173827 L -30.729143142700195 48.33100128173827 L -26.536174774169922 48.33100128173827 L -24.576000213623047 48.33100128173827 L -24.463825225830078 48.33100128173827 L -22.38715362548828 48.33100128173827 L -20.270856857299805 48.33100128173827 L -16.384000778198242 48.33100128173827 L -8.824877738952637 48.33100128173827 L -6.361937522888184 48.33100128173827 L -5.65575647354126 48.33100128173827 L 0 48.33100128173827 L 8.192000389099121 48.33100128173827 L 12.288000106811523 48.33100128173827 L 13.112247467041016 48.33100128173827 L 14.949201583862305 48.33100128173827 L 16.384000778198242 48.33100128173827 L 18.725143432617188 48.33100128173827 L 23.38715362548828 48.33100128173827 L 24.576000213623047 48.33100128173827 L 24.861745834350586 48.33100128173827 L 27.536174774169922 48.33100128173827 L 29.61284637451172 48.33100128173827 L 31.72614097595215 48.33100128173827 L 32.768001556396484 48.33100128173827 L 40.959999084472656 48.33100128173827 L 42.344242095947266 48.33100128173827 L 45.3619384765625 48.33100128173827 L 49.152000427246094 48.33100128173827 L 57.34400177001953 48.33100128173827 L 60.344242095947266 48.33100128173827 L 65.53600311279297 48.33100128173827 L 73.72799682617188 48.33100128173827 L 77.8239974975586 48.33100128173827 L 81.91999816894531 48.33100128173827 L 90.11199951171875 48.33100128173827 L 98.30400085449219 48.33100128173827 L 100.69000244140625 48.33100128173827 L 100.79692840576172 48.33100128173827 M 108.54964447021484 62.06800079345702 L 108.54964447021484 65.53600311279295 L 108.54964447021484 69.63200378417967 L 108.54964447021484 73.72799682617186 L 108.54964447021484 77.82399749755858 L 108.54964447021484 81.9199981689453 L 108.54964447021484 86.01599884033202 L 108.54964447021484 90.11199951171874 L 108.54964447021484 94.20800018310545 L 108.54964447021484 98.30400085449216 L 108.54964447021484 102.40000152587888 L 108.54964447021484 104.568000793457 L 110.59200286865234 104.568000793457 L 110.89601135253906 104.568000793457 L 114.12665557861328 104.568000793457 L 114.13561248779297 106.4960021972656 L 114.13640594482422 106.66647338867185 L 114.13640594482422 108.568000793457 L 106.49600219726562 108.568000793457 L 102.87334442138672 108.568000793457 L 102.86371612548828 106.4960021972656 L 102.86359405517578 106.46952819824216 L 102.86359405517578 104.568000793457 L 106.10398864746094 104.568000793457 L 106.49600219726562 104.568000793457 L 107.91841888427734 104.568000793457 L 108.45035552978516 104.568000793457 L 108.45035552978516 102.40000152587888 L 108.45035552978516 98.30400085449216 L 108.45035552978516 94.20800018310545 L 108.45035552978516 90.11199951171874 L 108.45035552978516 86.01599884033202 L 108.45035552978516 81.9199981689453 L 108.45035552978516 77.82399749755858 L 108.45035552978516 73.72799682617186 L 108.45035552978516 69.63200378417967 L 108.45035552978516 65.53600311279295 L 108.45035552978516 62.06800079345702 L 108.54964447021484 62.06800079345702 M 125.1797103881836 104.568000793457 L 125.1797103881836 108.568000793457 L 122.87999725341797 108.568000793457 L 115.67599487304688 108.568000793457 L 115.47303009033203 108.568000793457 L 115.47303009033203 106.4960021972656 L 115.47303009033203 104.568000793457 L 122.87999725341797 104.568000793457 L 125.1797103881836 104.568000793457 M 86.07823181152344 82.56800079345702 L 86.08147430419922 89.63897705078124 L 86.10041809082031 98.30400085449216 L 86.11410522460938 104.568000793457 L 86.08695220947266 107.02439880371091 L 86.08695220947266 108.568000793457 L 85.53302001953125 108.568000793457 L 85.52688598632812 108.568000793457 L 85.0999984741211 108.568000793457 L 85.09143829345703 108.568000793457 L 81.91999816894531 108.568000793457 L 77.79393005371094 108.568000793457 L 77.79393005371094 98.30400085449216 L 77.79393005371094 82.56800079345702 L 81.91999816894531 82.56800079345702 L 85.10922241210938 82.56800079345702 L 85.1205825805664 82.56800079345702 L 85.52143096923828 82.56800079345702 L 85.58885955810547 82.56800079345702 L 85.85082244873047 82.56800079345702 L 85.85198211669922 82.56800079345702 L 86.01390075683594 82.56800079345702 L 86.01432037353516 82.56800079345702 L 86.0660171508789 82.56800079345702 L 86.07823181152344 82.56800079345702 M 91.8202896118164 108.568000793457 L 91.8202896118164 104.568000793457 L 98.30400085449219 104.568000793457 L 101.52696990966797 104.568000793457 L 101.52696990966797 106.4960021972656 L 101.52696990966797 108.568000793457 L 100.764404296875 108.568000793457 L 98.30400085449219 108.568000793457 L 91.8202896118164 108.568000793457 M 40.11521530151367 18.328659057617184 L 40.228546142578125 18.431999206542965 L 40.24212646484375 18.444381713867184 L 40.4398078918457 18.8989143371582 L 40.44538116455078 18.915884017944332 L 40.446346282958984 18.918827056884762 L 40.44649124145508 18.92522048950195 L 40.44780731201172 18.936286926269528 L 40.4493408203125 18.95809173583984 L 40.56264877319336 20.18059921264648 L 40.589576721191406 20.479999542236325 L 40.62196350097656 20.84011077880859 L 40.61735534667969 21.046075820922848 L 40.60710525512695 21.503999710083004 L 40.590084075927734 22.264574050903317 L 40.583518981933594 22.527999877929684 L 40.58270263671875 22.5607738494873 L 40.58089828491211 22.63319396972656 L 40.435752868652344 23.552000045776364 L 40.37620544433594 23.92895126342773 L 40.371665954589844 23.944709777832028 L 40.369136810302734 23.953495025634762 L 40.36396789550781 23.962366104125973 L 40.33579635620117 24.01057815551757 L 40.0897216796875 24.305257797241204 L 40.031959533691406 24.34630393981933 L 40.021240234375 24.35391998291015 L 39.98410415649414 24.340476989746087 L 39.93600082397461 24.33461952209472 L 39.77565383911133 24.31509590148925 L 39.76900100708008 24.314287185668938 L 39.72226333618164 24.24077606201171 L 39.55683898925781 24.01050376892089 L 39.536033630371094 23.962366104125973 L 39.533966064453125 23.956724166870114 L 39.52379608154297 23.92895126342773 L 39.49342727661133 23.552000045776364 L 39.41093826293945 22.527999877929684 L 39.32844924926758 21.503999710083004 L 39.27936935424805 20.89472389221191 L 39.27803421020508 20.84011077880859 L 39.27852249145508 20.834682464599606 L 39.310420989990234 20.479999542236325 L 39.33734893798828 20.18059921264648 L 39.450660705566406 18.95809173583984 L 39.45219039916992 18.936286926269528 L 39.45351028442383 18.92522048950195 L 39.45365524291992 18.918827056884762 L 39.4601936340332 18.8989143371582 L 39.657875061035156 18.444381713867184 L 39.671451568603516 18.431999206542965 L 39.784786224365234 18.328659057617184 L 39.95000076293945 18.20278739929199 L 40.11521530151367 18.328659057617184 M 41.27799987792969 25.73505783081054 L 40.959999084472656 25.73505783081054 L 39.99772644042969 25.73505783081054 L 39.957584381103516 25.73505783081054 L 39.94241714477539 25.73505783081054 L 39.90227508544922 25.73505783081054 L 38.9119987487793 25.73505783081054 L 38.77799987792969 25.73505783081054 L 38.77799987792969 25.663244247436516 L 38.77799987792969 25.66321945190429 L 38.79130172729492 25.66324615478515 L 38.798099517822266 25.663248062133782 L 38.811851501464844 25.663249969482415 L 38.8444938659668 25.66321945190429 L 38.860198974609375 25.663255691528313 L 38.9119987487793 25.663255691528313 L 39.8870964050293 25.663255691528313 L 39.925594329833984 25.663255691528313 L 39.97440719604492 25.663255691528313 L 40.01290512084961 25.663255691528313 L 40.959999084472656 25.663255691528313 L 41.18486022949219 25.663255691528313 L 41.22003173828125 25.663217544555657 L 41.236351013183594 25.663249969482415 L 41.25199508666992 25.663248062133782 L 41.26041030883789 25.66324615478515 L 41.27799987792969 25.66321945190429 L 41.27799987792969 25.73505783081054 M -109.00299835205078 -1.9550000429153438 L -109.00299835205078 1.1102230246251565e-16 L -109.00299835205078 8.19200038909912 L -109.00299835205078 13.40435409545898 L -109.00299835205078 14.90650367736816 L -109.00299835205078 16.38400077819824 L -109.00299835205078 17.142854690551754 L -109.00299835205078 18.54084968566894 L -109.00299835205078 20.479999542236325 L -109.00299835205078 24.57600021362304 L -109.00299835205078 24.65081596374511 L -109.00299835205078 28.013185501098626 L -109.00299835205078 29.548803329467766 L -109.00299835205078 30.96532249450683 L -109.00299835205078 32.76800155639648 L -109.00299835205078 38.86047744750976 L -109.00299835205078 39.235523223876946 L -110.99800109863281 39.235523223876946 L -110.99800109863281 38.86047744750976 L -110.99800109863281 32.76800155639648 L -110.99800109863281 30.96532249450683 L -110.99800109863281 29.548803329467766 L -110.99800109863281 28.013185501098626 L -110.99800109863281 24.65081596374511 L -110.99800109863281 24.57600021362304 L -110.99800109863281 20.479999542236325 L -110.99800109863281 18.54084968566894 L -110.99800109863281 17.142854690551754 L -110.99800109863281 16.38400077819824 L -110.99800109863281 14.90650367736816 L -110.99800109863281 13.40435409545898 L -110.99800109863281 8.19200038909912 L -110.99800109863281 1.1102230246251565e-16 L -110.99800109863281 -1.9550000429153438 L -109.00299835205078 -1.9550000429153438 M -140.2054443359375 -63.050781249999986 L -140.20510864257812 -63.29999923706053 L -139.26400756835938 -63.29999923706053 L -135.16799926757812 -63.29999923706053 L -131.07200622558594 -63.29999923706053 L -130.72161865234375 -63.29999923706053 L -130.72161865234375 -49.15200042724608 L -130.72161865234375 -32.76800155639648 L -130.72161865234375 -16.38400077819824 L -130.72161865234375 1.1102230246251565e-16 L -130.72161865234375 16.38400077819824 L -130.72161865234375 32.76800155639648 L -130.72161865234375 44.700000762939446 L -131.07200622558594 44.700000762939446 L -135.16799926757812 44.700000762939446 L -139.26400756835938 44.700000762939446 L -140.20510864257812 44.700000762939446 L -140.2054443359375 44.38879013061523 L -140.2056121826172 44.20299911499023 L -139.26400756835938 44.20299911499023 L -135.16799926757812 44.20299911499023 L -131.2991485595703 44.20299911499023 L -131.2991485595703 40.95999908447265 L -131.2991485595703 32.76800155639648 L -131.2991485595703 16.38400077819824 L -131.2991485595703 1.1102230246251565e-16 L -131.2991485595703 -16.38400077819824 L -131.2991485595703 -32.76800155639648 L -131.2991485595703 -49.15200042724608 L -131.2991485595703 -57.34400177001952 L -131.2991485595703 -61.43999862670897 L -131.2991485595703 -62.90200042724608 L -135.16799926757812 -62.90200042724608 L -139.26400756835938 -62.90200042724608 L -140.2056121826172 -62.90200042724608 L -140.2054443359375 -63.050781249999986 M 38.77799987792969 25.663244247436516 L 38.77799987792969 25.663244247436516 z" fill="none" stroke="rgb(255,0,0)" stroke-width="0.001mm" />
</svg>